<svg width="38" height="38" viewBox="0 0 26 26" fill="none" xmlns="http://www.w3.org/2000/svg">
<path d="M22.9952 21.292C24.3296 19.6877 25.2576 17.7858 25.7009 15.7473C26.1441 13.7088 26.0895 11.5936 25.5417 9.58061C24.9938 7.56764 23.9689 5.71613 22.5535 4.18271C21.1382 2.64929 19.3741 1.47907 17.4104 0.771042C15.4468 0.0630167 13.3413 -0.161985 11.2723 0.115071C9.20317 0.392127 7.2313 1.16309 5.52345 2.36274C3.81561 3.56239 2.42202 5.15544 1.4606 7.00712C0.499167 8.8588 -0.00182352 10.9146 4.98728e-06 13.0007C0.000706647 16.0333 1.07013 18.9687 3.02063 21.292L3.00204 21.3078C3.06708 21.3858 3.14142 21.4526 3.20831 21.5297C3.29194 21.6253 3.38206 21.7154 3.46847 21.8082C3.72863 22.0905 3.99622 22.3616 4.27682 22.616C4.3623 22.694 4.45057 22.7664 4.53698 22.8407C4.8343 23.0969 5.13999 23.3402 5.45682 23.5667C5.4977 23.5946 5.53487 23.6308 5.57575 23.6596V23.6484C7.75189 25.1787 10.3479 26 13.0088 26C15.6698 26 18.2658 25.1787 20.4419 23.6484V23.6596C20.4828 23.6308 20.5191 23.5946 20.5609 23.5667C20.8768 23.3393 21.1834 23.0969 21.4807 22.8407C21.5671 22.7664 21.6554 22.693 21.7409 22.616C22.0215 22.3606 22.2891 22.0905 22.5492 21.8082C22.6356 21.7154 22.7248 21.6253 22.8094 21.5297C22.8753 21.4526 22.9506 21.3857 23.0156 21.3068L22.9952 21.292ZM13.0079 5.57293C13.8349 5.57293 14.6432 5.81797 15.3308 6.27707C16.0184 6.73617 16.5543 7.38871 16.8708 8.15216C17.1872 8.91561 17.27 9.75569 17.1087 10.5662C16.9474 11.3766 16.5491 12.1211 15.9644 12.7054C15.3797 13.2898 14.6347 13.6877 13.8236 13.8489C13.0126 14.0101 12.1719 13.9274 11.4079 13.6111C10.6439 13.2949 9.99087 12.7594 9.53145 12.0723C9.07202 11.3852 8.8268 10.5774 8.8268 9.75106C8.8268 8.64295 9.26731 7.58023 10.0514 6.79668C10.8355 6.01313 11.899 5.57293 13.0079 5.57293ZM5.58133 21.292C5.59745 20.0729 6.09323 18.9091 6.96143 18.0525C7.82962 17.1958 9.00041 16.7152 10.2205 16.7146H15.7953C17.0154 16.7152 18.1862 17.1958 19.0544 18.0525C19.9226 18.9091 20.4184 20.0729 20.4345 21.292C18.3968 23.1269 15.751 24.1425 13.0079 24.1425C10.2649 24.1425 7.61907 23.1269 5.58133 21.292Z" fill="#80779C"/>
</svg>
